<svg width="38" height="38" viewBox="0 0 38 38" fill="none" xmlns="http://www.w3.org/2000/svg">
<path fill-rule="evenodd" clip-rule="evenodd" d="M14.9625 25.7687C16.15 26.4813 17.575 26.8375 19 26.8375C23.3937 26.8375 26.8375 23.275 26.8375 19.1187C26.8375 16.9813 26.125 15.0812 24.5813 13.5375C23.0375 12.1125 21.1375 11.2812 19 11.2812C14.725 11.2812 11.1625 14.8438 11.1625 19.1187C11.1625 20.5438 11.5187 21.9688 12.35 23.275L12.5875 23.6313L11.7562 26.4813L14.725 25.65L14.9625 25.7687ZM21.6125 20.1875C21.85 20.1875 23.0375 20.7812 23.275 20.9C23.312 20.9185 23.349 20.9341 23.3855 20.9495C23.5836 21.0331 23.7685 21.1112 23.8688 21.6125C23.9875 21.6125 23.9875 22.0875 23.75 22.6812C23.6313 23.1562 22.6813 23.75 22.2063 23.75C22.1258 23.75 22.0487 23.7568 21.9664 23.7641C21.5628 23.7998 21.033 23.8467 19.3562 23.1562C17.2752 22.3238 15.8324 20.3061 15.4272 19.7396C15.37 19.6595 15.3334 19.6084 15.3187 19.5938C15.2985 19.5533 15.2576 19.4888 15.2037 19.4037C14.941 18.9889 14.3688 18.0853 14.3688 17.1C14.3688 15.9125 14.9625 15.3188 15.2 15.0812C15.4375 14.8438 15.675 14.8438 15.7937 14.8438H16.2688C16.3875 14.8438 16.625 14.8438 16.7438 15.2C16.9813 15.675 17.4563 16.8625 17.4563 16.9813C17.4563 17.0208 17.4695 17.0604 17.4826 17.1C17.509 17.1792 17.5354 17.2583 17.4563 17.3375C17.3969 17.3969 17.3672 17.4562 17.3375 17.5156C17.3078 17.575 17.2781 17.6344 17.2188 17.6938L16.8625 18.05C16.7438 18.1688 16.625 18.2875 16.7438 18.525C16.8625 18.7625 17.3375 19.5938 18.05 20.1875C18.8517 20.889 19.4842 21.1676 19.8049 21.3089C19.8643 21.335 19.9129 21.3565 19.95 21.375C20.1875 21.375 20.3063 21.375 20.425 21.2563C20.4844 21.1375 20.6328 20.9594 20.7812 20.7812C20.9297 20.6031 21.0781 20.425 21.1375 20.3062C21.2562 20.0688 21.375 20.0688 21.6125 20.1875Z" fill="#F8F9FA"/>
<path fill-rule="evenodd" clip-rule="evenodd" d="M0 5.9375C0 2.65831 2.65831 0 5.9375 0H32.0625C35.3417 0 38 2.65831 38 5.9375V32.0625C38 35.3417 35.3417 38 32.0625 38H5.9375C2.65831 38 0 35.3417 0 32.0625V5.9375ZM19 9.5C21.4937 9.5 23.8688 10.45 25.65 12.2313C27.4313 14.0125 28.5 16.3875 28.5 18.8813C28.5 24.1063 24.225 28.3813 19 28.3813C17.4562 28.3813 15.9125 27.9062 14.4875 27.1938L9.5 28.5L10.8063 23.75C9.97501 22.325 9.5 20.6625 9.5 19C9.5 13.775 13.775 9.5 19 9.5Z" fill="#F8F9FA"/>
</svg>
